<svg xmlns="http://www.w3.org/2000/svg" viewBox="0 0 256 256">
  <rect width="256" height="256" fill="none"/>
  <path d="M128,16c-25.9,0-50.3,10.1-68.6,28.4S31,87.1,31,113c0,25.9,10.1,50.3,28.4,68.6S102.1,210,128,210c25.9,0,50.3-10.1,68.6-28.4S225,138.9,225,113c0-25.9-10.1-50.3-28.4-68.6S153.9,16,128,16z" fill="#72E5D8"/>
  <path d="M128,40c-40.3,0-73,32.7-73,73s32.7,73,73,73s73-32.7,73-73S168.3,40,128,40z M128,160c-25.9,0-47-21.1-47-47s21.1-47,47-47s47,21.1,47,47S153.9,160,128,160z" fill="#3A7F89"/>
</svg>
