<svg xmlns="http://www.w3.org/2000/svg" viewBox="0 0 128 128">
  <rect fill="#3178c6" x="0" y="0" width="128" height="128" rx="6" />
  <path fill="#fff" d="M22.67 47h5.08v15.74h14.27V47h5.08v38.32h-5.08V67.7H27.75v17.62h-5.08V47zm42.31 9.6v-4.4h4.92v4.4h-4.92zm.16 28.72V62.3h4.92v23.02h-4.92z" />
  <path fill="#fff" d="M78.3 69.45c.77 0 1.42-.05 1.98-.14v-3.82a6.96 6.96 0 0 0-1.28-.12c-.7 0-1.3.1-1.8.29a3.7 3.7 0 0 0-1.32.84c-.35.37-.6.83-.76 1.39-.16.56-.24 1.2-.24 1.94v11.15c0 1.82-.43 3.18-1.28 4.08-.85.9-2.12 1.35-3.8 1.35-1.4 0-2.58-.4-3.52-1.2-.94-.8-1.41-2.01-1.41-3.65v-.87l4.6-.3v.58c0 .67.17 1.16.52 1.47.35.3.8.46 1.35.46.57 0 1.02-.18 1.35-.53.33-.35.5-.88.5-1.59v-2.05c0-.98.06-1.88.17-2.7.1-.82.32-1.53.63-2.13.32-.6.78-1.07 1.4-1.41a5.43 5.43 0 0 1 2.4-.5zm9.92-3.03c1.44 0 2.73.24 3.87.7a8.44 8.44 0 0 1 4.75 4.77c.47 1.15.7 2.45.7 3.88v1.64h-12.8c0 .87.11 1.65.34 2.34.23.7.55 1.28.97 1.76.42.48.93.85 1.53 1.1.6.25 1.27.38 2 .38 1.08 0 2-.25 2.75-.75.75-.5 1.28-1.21 1.59-2.13l4.13.35c-.47 1.8-1.43 3.2-2.88 4.2-1.45 1-3.3 1.5-5.56 1.5-1.47 0-2.78-.23-3.94-.7a8.01 8.01 0 0 1-2.91-1.97 8.52 8.52 0 0 1-1.8-3.06 12.48 12.48 0 0 1-.61-4.01c0-1.48.21-2.8.64-3.98a8.35 8.35 0 0 1 1.85-3.06 8.1 8.1 0 0 1 2.9-1.96 9.87 9.87 0 0 1 3.8-.7zm4.62 8.06c0-.8-.12-1.53-.35-2.2a5.01 5.01 0 0 0-2.4-2.82 4.57 4.57 0 0 0-2.08-.46c-.74 0-1.4.13-1.98.4-.58.28-1.08.65-1.49 1.12-.4.47-.72 1.02-.93 1.65-.22.63-.33 1.3-.33 2.02v.29h9.56z" />
</svg>
