<svg xmlns="http://www.w3.org/2000/svg" viewBox="0 0 256 256">
  <rect width="256" height="256" fill="none"/>
  <circle cx="128" cy="128" r="112" fill="none" stroke="currentColor" stroke-linecap="round" stroke-linejoin="round" stroke-width="16"/>
  <path d="M128,128h0a32,32,0,0,1,32-32h0a32,32,0,0,1,32,32h0a32,32,0,0,1-32,32h0a32,32,0,0,1-32-32Z" fill="none" stroke="currentColor" stroke-linecap="round" stroke-linejoin="round" stroke-width="16"/>
  <path d="M128,128h0a32,32,0,0,0-32-32h0a32,32,0,0,0-32,32h0a32,32,0,0,0,32,32h0a32,32,0,0,0,32-32Z" fill="none" stroke="currentColor" stroke-linecap="round" stroke-linejoin="round" stroke-width="16"/>
</svg>
